<mxfile host="app.diagrams.net" modified="2023-06-02T08:34:43.706Z" agent="Mozilla/5.0 (Macintosh; Intel Mac OS X 10_15_7) AppleWebKit/537.36 (KHTML, like Gecko) Chrome/112.0.0.0 Safari/537.36 Edg/112.0.1722.68" etag="KLFiFviYjDgGbICd_64m" version="21.3.2" type="github">
  <diagram id="C5RBs43oDa-KdzZeNtuy" name="Page-1">
    <mxGraphModel dx="2023" dy="1163" grid="0" gridSize="10" guides="1" tooltips="1" connect="1" arrows="1" fold="1" page="1" pageScale="1" pageWidth="827" pageHeight="1169" math="0" shadow="0">
      <root>
        <mxCell id="WIyWlLk6GJQsqaUBKTNV-0" />
        <mxCell id="WIyWlLk6GJQsqaUBKTNV-1" parent="WIyWlLk6GJQsqaUBKTNV-0" />
        <mxCell id="WIQcurEIaewj1Aef4syE-4" value="stream-backend-product" style="swimlane;whiteSpace=wrap;html=1;" vertex="1" parent="WIyWlLk6GJQsqaUBKTNV-1">
          <mxGeometry x="30" y="130" width="200" height="940" as="geometry" />
        </mxCell>
        <mxCell id="WIQcurEIaewj1Aef4syE-3" value="Create Project" style="rounded=1;whiteSpace=wrap;html=1;fontSize=12;glass=0;strokeWidth=1;shadow=0;" vertex="1" parent="WIQcurEIaewj1Aef4syE-4">
          <mxGeometry x="40" y="60" width="120" height="40" as="geometry" />
        </mxCell>
        <mxCell id="WIQcurEIaewj1Aef4syE-18" value="" style="edgeStyle=orthogonalEdgeStyle;rounded=0;orthogonalLoop=1;jettySize=auto;html=1;" edge="1" parent="WIQcurEIaewj1Aef4syE-4" source="WIQcurEIaewj1Aef4syE-14" target="WIQcurEIaewj1Aef4syE-17">
          <mxGeometry relative="1" as="geometry" />
        </mxCell>
        <mxCell id="WIQcurEIaewj1Aef4syE-14" value="Get Project ID" style="rounded=1;whiteSpace=wrap;html=1;fontSize=12;glass=0;strokeWidth=1;shadow=0;" vertex="1" parent="WIQcurEIaewj1Aef4syE-4">
          <mxGeometry x="40" y="140" width="120" height="40" as="geometry" />
        </mxCell>
        <mxCell id="WIQcurEIaewj1Aef4syE-17" value="Update Project FIle" style="rounded=1;whiteSpace=wrap;html=1;fontSize=12;glass=0;strokeWidth=1;shadow=0;" vertex="1" parent="WIQcurEIaewj1Aef4syE-4">
          <mxGeometry x="40" y="240" width="120" height="40" as="geometry" />
        </mxCell>
        <mxCell id="WIQcurEIaewj1Aef4syE-27" value="" style="edgeStyle=orthogonalEdgeStyle;rounded=0;orthogonalLoop=1;jettySize=auto;html=1;" edge="1" parent="WIQcurEIaewj1Aef4syE-4" source="WIQcurEIaewj1Aef4syE-24" target="WIQcurEIaewj1Aef4syE-26">
          <mxGeometry relative="1" as="geometry" />
        </mxCell>
        <mxCell id="WIQcurEIaewj1Aef4syE-24" value="Get Update Result" style="rounded=1;whiteSpace=wrap;html=1;fontSize=12;glass=0;strokeWidth=1;shadow=0;" vertex="1" parent="WIQcurEIaewj1Aef4syE-4">
          <mxGeometry x="40" y="330" width="120" height="40" as="geometry" />
        </mxCell>
        <mxCell id="WIQcurEIaewj1Aef4syE-26" value="Startup Project" style="rounded=1;whiteSpace=wrap;html=1;fontSize=12;glass=0;strokeWidth=1;shadow=0;" vertex="1" parent="WIQcurEIaewj1Aef4syE-4">
          <mxGeometry x="40" y="435" width="120" height="40" as="geometry" />
        </mxCell>
        <mxCell id="WIQcurEIaewj1Aef4syE-36" value="Get Startup Result" style="rounded=1;whiteSpace=wrap;html=1;fontSize=12;glass=0;strokeWidth=1;shadow=0;" vertex="1" parent="WIQcurEIaewj1Aef4syE-4">
          <mxGeometry x="40" y="860" width="120" height="40" as="geometry" />
        </mxCell>
        <mxCell id="WIQcurEIaewj1Aef4syE-5" value="stream-backend-contract" style="swimlane;whiteSpace=wrap;html=1;" vertex="1" parent="WIyWlLk6GJQsqaUBKTNV-1">
          <mxGeometry x="230" y="130" width="300" height="940" as="geometry" />
        </mxCell>
        <mxCell id="WIQcurEIaewj1Aef4syE-7" value="Forward request" style="rounded=1;whiteSpace=wrap;html=1;fontSize=12;glass=0;strokeWidth=1;shadow=0;" vertex="1" parent="WIQcurEIaewj1Aef4syE-5">
          <mxGeometry x="70" y="60" width="120" height="40" as="geometry" />
        </mxCell>
        <mxCell id="WIQcurEIaewj1Aef4syE-11" value="Forward response" style="rounded=1;whiteSpace=wrap;html=1;fontSize=12;glass=0;strokeWidth=1;shadow=0;" vertex="1" parent="WIQcurEIaewj1Aef4syE-5">
          <mxGeometry x="70" y="140" width="120" height="40" as="geometry" />
        </mxCell>
        <mxCell id="WIQcurEIaewj1Aef4syE-1" value="Forward request" style="rounded=1;whiteSpace=wrap;html=1;fontSize=12;glass=0;strokeWidth=1;shadow=0;" vertex="1" parent="WIQcurEIaewj1Aef4syE-5">
          <mxGeometry x="70" y="240" width="120" height="40" as="geometry" />
        </mxCell>
        <mxCell id="WIQcurEIaewj1Aef4syE-22" value="Forward response" style="rounded=1;whiteSpace=wrap;html=1;fontSize=12;glass=0;strokeWidth=1;shadow=0;" vertex="1" parent="WIQcurEIaewj1Aef4syE-5">
          <mxGeometry x="70" y="330" width="120" height="40" as="geometry" />
        </mxCell>
        <mxCell id="WIQcurEIaewj1Aef4syE-28" value="Forward request" style="rounded=1;whiteSpace=wrap;html=1;fontSize=12;glass=0;strokeWidth=1;shadow=0;" vertex="1" parent="WIQcurEIaewj1Aef4syE-5">
          <mxGeometry x="70" y="435" width="120" height="40" as="geometry" />
        </mxCell>
        <mxCell id="WIQcurEIaewj1Aef4syE-35" value="" style="edgeStyle=orthogonalEdgeStyle;rounded=0;orthogonalLoop=1;jettySize=auto;html=1;" edge="1" parent="WIQcurEIaewj1Aef4syE-5" source="WIQcurEIaewj1Aef4syE-32" target="WIyWlLk6GJQsqaUBKTNV-6">
          <mxGeometry relative="1" as="geometry" />
        </mxCell>
        <mxCell id="WIQcurEIaewj1Aef4syE-32" value="Get Startup Response" style="rounded=1;whiteSpace=wrap;html=1;fontSize=12;glass=0;strokeWidth=1;shadow=0;" vertex="1" parent="WIQcurEIaewj1Aef4syE-5">
          <mxGeometry x="80" y="520" width="120" height="40" as="geometry" />
        </mxCell>
        <mxCell id="WIQcurEIaewj1Aef4syE-40" value="Yes" style="edgeStyle=orthogonalEdgeStyle;rounded=0;orthogonalLoop=1;jettySize=auto;html=1;exitX=1;exitY=0.5;exitDx=0;exitDy=0;" edge="1" parent="WIQcurEIaewj1Aef4syE-5" source="WIyWlLk6GJQsqaUBKTNV-6" target="WIQcurEIaewj1Aef4syE-39">
          <mxGeometry relative="1" as="geometry">
            <Array as="points">
              <mxPoint x="230" y="640" />
            </Array>
          </mxGeometry>
        </mxCell>
        <mxCell id="WIQcurEIaewj1Aef4syE-46" style="edgeStyle=orthogonalEdgeStyle;rounded=0;orthogonalLoop=1;jettySize=auto;html=1;entryX=0.25;entryY=0;entryDx=0;entryDy=0;" edge="1" parent="WIQcurEIaewj1Aef4syE-5" source="WIyWlLk6GJQsqaUBKTNV-6" target="WIQcurEIaewj1Aef4syE-43">
          <mxGeometry relative="1" as="geometry">
            <Array as="points">
              <mxPoint x="40" y="640" />
            </Array>
          </mxGeometry>
        </mxCell>
        <mxCell id="WIQcurEIaewj1Aef4syE-47" value="No" style="edgeLabel;html=1;align=center;verticalAlign=middle;resizable=0;points=[];" vertex="1" connectable="0" parent="WIQcurEIaewj1Aef4syE-46">
          <mxGeometry x="0.0429" y="3" relative="1" as="geometry">
            <mxPoint as="offset" />
          </mxGeometry>
        </mxCell>
        <mxCell id="WIyWlLk6GJQsqaUBKTNV-6" value="Current User Is First Signatory?" style="rhombus;whiteSpace=wrap;html=1;shadow=0;fontFamily=Helvetica;fontSize=12;align=center;strokeWidth=1;spacing=6;spacingTop=-4;" parent="WIQcurEIaewj1Aef4syE-5" vertex="1">
          <mxGeometry x="70" y="600" width="140" height="80" as="geometry" />
        </mxCell>
        <mxCell id="WIQcurEIaewj1Aef4syE-50" style="edgeStyle=orthogonalEdgeStyle;rounded=0;orthogonalLoop=1;jettySize=auto;html=1;" edge="1" parent="WIQcurEIaewj1Aef4syE-5" source="WIQcurEIaewj1Aef4syE-39" target="WIQcurEIaewj1Aef4syE-48">
          <mxGeometry relative="1" as="geometry" />
        </mxCell>
        <mxCell id="WIQcurEIaewj1Aef4syE-39" value="Create Sign Ticket" style="rounded=1;whiteSpace=wrap;html=1;fontSize=12;glass=0;strokeWidth=1;shadow=0;" vertex="1" parent="WIQcurEIaewj1Aef4syE-5">
          <mxGeometry x="170" y="750" width="120" height="40" as="geometry" />
        </mxCell>
        <mxCell id="WIQcurEIaewj1Aef4syE-49" style="edgeStyle=orthogonalEdgeStyle;rounded=0;orthogonalLoop=1;jettySize=auto;html=1;" edge="1" parent="WIQcurEIaewj1Aef4syE-5" source="WIQcurEIaewj1Aef4syE-43" target="WIQcurEIaewj1Aef4syE-48">
          <mxGeometry relative="1" as="geometry" />
        </mxCell>
        <mxCell id="WIQcurEIaewj1Aef4syE-43" value="Send Sign Email" style="rounded=1;whiteSpace=wrap;html=1;fontSize=12;glass=0;strokeWidth=1;shadow=0;" vertex="1" parent="WIQcurEIaewj1Aef4syE-5">
          <mxGeometry x="10" y="750" width="120" height="40" as="geometry" />
        </mxCell>
        <mxCell id="WIQcurEIaewj1Aef4syE-48" value="Forward response" style="rounded=1;whiteSpace=wrap;html=1;fontSize=12;glass=0;strokeWidth=1;shadow=0;" vertex="1" parent="WIQcurEIaewj1Aef4syE-5">
          <mxGeometry x="80" y="860" width="120" height="40" as="geometry" />
        </mxCell>
        <mxCell id="WIQcurEIaewj1Aef4syE-6" value="BiteSign" style="swimlane;whiteSpace=wrap;html=1;" vertex="1" parent="WIyWlLk6GJQsqaUBKTNV-1">
          <mxGeometry x="530" y="130" width="200" height="940" as="geometry" />
        </mxCell>
        <mxCell id="WIQcurEIaewj1Aef4syE-9" value="Create Product" style="rounded=1;whiteSpace=wrap;html=1;fontSize=12;glass=0;strokeWidth=1;shadow=0;" vertex="1" parent="WIQcurEIaewj1Aef4syE-6">
          <mxGeometry x="40" y="60" width="120" height="40" as="geometry" />
        </mxCell>
        <mxCell id="WIQcurEIaewj1Aef4syE-20" value="Fill Form Data" style="rounded=1;whiteSpace=wrap;html=1;fontSize=12;glass=0;strokeWidth=1;shadow=0;" vertex="1" parent="WIQcurEIaewj1Aef4syE-6">
          <mxGeometry x="40" y="240" width="120" height="40" as="geometry" />
        </mxCell>
        <mxCell id="WIQcurEIaewj1Aef4syE-30" value="Startup Project" style="rounded=1;whiteSpace=wrap;html=1;fontSize=12;glass=0;strokeWidth=1;shadow=0;" vertex="1" parent="WIQcurEIaewj1Aef4syE-6">
          <mxGeometry x="40" y="435" width="120" height="40" as="geometry" />
        </mxCell>
        <mxCell id="WIQcurEIaewj1Aef4syE-8" value="" style="edgeStyle=orthogonalEdgeStyle;rounded=0;orthogonalLoop=1;jettySize=auto;html=1;" edge="1" parent="WIyWlLk6GJQsqaUBKTNV-1" source="WIQcurEIaewj1Aef4syE-3" target="WIQcurEIaewj1Aef4syE-7">
          <mxGeometry relative="1" as="geometry" />
        </mxCell>
        <mxCell id="WIQcurEIaewj1Aef4syE-10" value="" style="edgeStyle=orthogonalEdgeStyle;rounded=0;orthogonalLoop=1;jettySize=auto;html=1;" edge="1" parent="WIyWlLk6GJQsqaUBKTNV-1" source="WIQcurEIaewj1Aef4syE-7" target="WIQcurEIaewj1Aef4syE-9">
          <mxGeometry relative="1" as="geometry" />
        </mxCell>
        <mxCell id="WIQcurEIaewj1Aef4syE-12" style="edgeStyle=orthogonalEdgeStyle;rounded=0;orthogonalLoop=1;jettySize=auto;html=1;entryX=1;entryY=0.5;entryDx=0;entryDy=0;dashed=1;" edge="1" parent="WIyWlLk6GJQsqaUBKTNV-1" source="WIQcurEIaewj1Aef4syE-9" target="WIQcurEIaewj1Aef4syE-11">
          <mxGeometry relative="1" as="geometry">
            <Array as="points">
              <mxPoint x="630" y="290" />
            </Array>
          </mxGeometry>
        </mxCell>
        <mxCell id="WIQcurEIaewj1Aef4syE-13" value="Project ID" style="edgeLabel;html=1;align=center;verticalAlign=middle;resizable=0;points=[];" vertex="1" connectable="0" parent="WIQcurEIaewj1Aef4syE-12">
          <mxGeometry x="0.06" y="-2" relative="1" as="geometry">
            <mxPoint as="offset" />
          </mxGeometry>
        </mxCell>
        <mxCell id="WIQcurEIaewj1Aef4syE-15" style="edgeStyle=orthogonalEdgeStyle;rounded=0;orthogonalLoop=1;jettySize=auto;html=1;dashed=1;" edge="1" parent="WIyWlLk6GJQsqaUBKTNV-1" source="WIQcurEIaewj1Aef4syE-11" target="WIQcurEIaewj1Aef4syE-14">
          <mxGeometry relative="1" as="geometry" />
        </mxCell>
        <mxCell id="WIQcurEIaewj1Aef4syE-16" value="Project ID" style="edgeLabel;html=1;align=center;verticalAlign=middle;resizable=0;points=[];" vertex="1" connectable="0" parent="WIQcurEIaewj1Aef4syE-15">
          <mxGeometry x="0.175" y="-3" relative="1" as="geometry">
            <mxPoint x="7" y="-7" as="offset" />
          </mxGeometry>
        </mxCell>
        <mxCell id="WIQcurEIaewj1Aef4syE-19" value="" style="edgeStyle=orthogonalEdgeStyle;rounded=0;orthogonalLoop=1;jettySize=auto;html=1;" edge="1" parent="WIyWlLk6GJQsqaUBKTNV-1" source="WIQcurEIaewj1Aef4syE-17" target="WIQcurEIaewj1Aef4syE-1">
          <mxGeometry relative="1" as="geometry" />
        </mxCell>
        <mxCell id="WIQcurEIaewj1Aef4syE-21" value="" style="edgeStyle=orthogonalEdgeStyle;rounded=0;orthogonalLoop=1;jettySize=auto;html=1;" edge="1" parent="WIyWlLk6GJQsqaUBKTNV-1" source="WIQcurEIaewj1Aef4syE-1" target="WIQcurEIaewj1Aef4syE-20">
          <mxGeometry relative="1" as="geometry" />
        </mxCell>
        <mxCell id="WIQcurEIaewj1Aef4syE-23" style="edgeStyle=orthogonalEdgeStyle;rounded=0;orthogonalLoop=1;jettySize=auto;html=1;entryX=1;entryY=0.5;entryDx=0;entryDy=0;dashed=1;" edge="1" parent="WIyWlLk6GJQsqaUBKTNV-1" source="WIQcurEIaewj1Aef4syE-20" target="WIQcurEIaewj1Aef4syE-22">
          <mxGeometry relative="1" as="geometry">
            <Array as="points">
              <mxPoint x="630" y="480" />
            </Array>
          </mxGeometry>
        </mxCell>
        <mxCell id="WIQcurEIaewj1Aef4syE-25" value="" style="edgeStyle=orthogonalEdgeStyle;rounded=0;orthogonalLoop=1;jettySize=auto;html=1;dashed=1;" edge="1" parent="WIyWlLk6GJQsqaUBKTNV-1" source="WIQcurEIaewj1Aef4syE-22" target="WIQcurEIaewj1Aef4syE-24">
          <mxGeometry relative="1" as="geometry" />
        </mxCell>
        <mxCell id="WIQcurEIaewj1Aef4syE-29" value="" style="edgeStyle=orthogonalEdgeStyle;rounded=0;orthogonalLoop=1;jettySize=auto;html=1;" edge="1" parent="WIyWlLk6GJQsqaUBKTNV-1" source="WIQcurEIaewj1Aef4syE-26" target="WIQcurEIaewj1Aef4syE-28">
          <mxGeometry relative="1" as="geometry" />
        </mxCell>
        <mxCell id="WIQcurEIaewj1Aef4syE-31" value="" style="edgeStyle=orthogonalEdgeStyle;rounded=0;orthogonalLoop=1;jettySize=auto;html=1;" edge="1" parent="WIyWlLk6GJQsqaUBKTNV-1" source="WIQcurEIaewj1Aef4syE-28" target="WIQcurEIaewj1Aef4syE-30">
          <mxGeometry relative="1" as="geometry" />
        </mxCell>
        <mxCell id="WIQcurEIaewj1Aef4syE-33" style="edgeStyle=orthogonalEdgeStyle;rounded=0;orthogonalLoop=1;jettySize=auto;html=1;entryX=1;entryY=0.5;entryDx=0;entryDy=0;dashed=1;" edge="1" parent="WIyWlLk6GJQsqaUBKTNV-1" source="WIQcurEIaewj1Aef4syE-30" target="WIQcurEIaewj1Aef4syE-32">
          <mxGeometry relative="1" as="geometry">
            <Array as="points">
              <mxPoint x="630" y="670" />
            </Array>
          </mxGeometry>
        </mxCell>
        <mxCell id="WIQcurEIaewj1Aef4syE-51" style="edgeStyle=orthogonalEdgeStyle;rounded=0;orthogonalLoop=1;jettySize=auto;html=1;entryX=1;entryY=0.5;entryDx=0;entryDy=0;dashed=1;" edge="1" parent="WIyWlLk6GJQsqaUBKTNV-1" source="WIQcurEIaewj1Aef4syE-48" target="WIQcurEIaewj1Aef4syE-36">
          <mxGeometry relative="1" as="geometry" />
        </mxCell>
      </root>
    </mxGraphModel>
  </diagram>
</mxfile>
